<svg width="24" height="24" xmlns="http://www.w3.org/2000/svg">
 <title/>

 <g>
  <title>background</title>
  <rect fill="none" id="canvas_background" height="402" width="582" y="-1" x="-1"/>
 </g>
 <g>
  <title>Layer 1</title>
  <path fill="#ffffff" id="svg_1" d="m13.7,19.55l5.88,-5.89l3.35,3.36a3.57,3.57 0 0 1 0,5.05l-0.83,0.83a3.57,3.57 0 0 1 -5.05,0l-3.35,-3.35zm9.22,-17.65l-0.83,-0.83a3.57,3.57 0 0 0 -5.05,0l-5.04,5.05l-5.05,-5.05a3.57,3.57 0 0 0 -5.05,0l-0.83,0.83a3.57,3.57 0 0 0 0,5.05l5.05,5.05l-5.05,5.05a3.57,3.57 0 0 0 0,5.05l0.83,0.83a3.57,3.57 0 0 0 5.05,0l5.05,-5.05l3.68,-3.68l2.2,-2.2l5.05,-5.05a3.57,3.57 0 0 0 0,-5.05l-0.01,0z"/>
 </g>
</svg>