<svg width="35" height="35" xmlns="http://www.w3.org/2000/svg">

 <g>
  <title>background</title>
  <rect fill="none" id="canvas_background" height="402" width="582" y="-1" x="-1"/>
 </g>
 <g>
  <title>Layer 1</title>
  <path fill="#ffffff" id="svg_1" d="m22.92,13.42l-10.84,0a6.59,6.59 0 0 1 0,-13.17l10.84,0a6.59,6.59 0 0 1 0,13.17zm-10.84,-10.67a4.09,4.09 0 0 0 0,8.17l10.84,0a4.09,4.09 0 0 0 0,-8.17l-10.84,0z"/>
  <path fill="#ffffff" id="svg_2" d="0"/>
  <path fill="#ffffff" id="svg_3" d="m12.16,34.75a6.59,6.59 0 1 1 0,-13.17a1.25,1.25 0 0 1 0,2.5a4.09,4.09 0 1 0 4.08,4.09l0,-5.34a1.25,1.25 0 0 1 2.5,0l0,5.34a6.59,6.59 0 0 1 -6.58,6.58z"/>
  <path fill="#ffffff" id="svg_4" d="m22.83,24.25a6.67,6.67 0 1 1 6.67,-6.67a6.67,6.67 0 0 1 -6.67,6.67zm0,-10.83a4.17,4.17 0 1 0 4.17,4.16a4.17,4.17 0 0 0 -4.17,-4.16z"/>
  <path fill="#ffffff" id="svg_5" d="m17.42,13.42l0,0a1.25,1.25 0 0 1 -1.24,-1.26l0.08,-10.67a1.25,1.25 0 0 1 1.24,-1.24l0,0a1.25,1.25 0 0 1 1.24,1.26l-0.08,10.67a1.26,1.26 0 0 1 -1.24,1.24z"/>
 </g>
</svg>